<svg version="1.1" viewBox="0.0 0.0 50.0 50.0" fill="none" stroke="none" stroke-linecap="square" stroke-miterlimit="10" xmlns:xlink="http://www.w3.org/1999/xlink" xmlns="http://www.w3.org/2000/svg"><clipPath id="p.0"><path d="m0 0l50.0 0l0 50.0l-50.0 0l0 -50.0z" clip-rule="nonzero"/></clipPath><g clip-path="url(#p.0)"><path fill="#000000" fill-opacity="0.0" d="m0 0l50.0 0l0 50.0l-50.0 0z" fill-rule="evenodd"/><path fill="#ffffff" d="m10.752002 11.141935l0 0c1.2089386 -0.7218838 2.7442818 -0.30980396 3.429285 0.92040634l12.952453 23.261549c0.32895088 0.5907669 0.413805 1.2950516 0.23589516 1.9579124c-0.17790985 0.6628609 -0.6040096 1.2300072 -1.1845627 1.5766678l0 0l0 0c-1.2089367 0.72188187 -2.7442799 0.309803 -3.429285 -0.92040634l-12.952453 -23.261549c-0.6850033 -1.2302113 -0.26027107 -2.8126965 0.9486675 -3.5345802z" fill-rule="evenodd"/><path fill="#ffffff" d="m39.247845 11.170916l0 0c1.2089386 0.7218838 1.6331863 2.304101 0.9475899 3.5339804l-12.9503 23.231255c-0.32923508 0.5906067 -0.87561035 1.0193176 -1.5189285 1.1918144c-0.6433182 0.1724968 -1.3308811 0.074653625 -1.9114323 -0.2720108l0 0l0 0c-1.2089386 -0.72188187 -1.6331902 -2.3041 -0.9475918 -3.5339775l12.9503 -23.231253c0.68559647 -1.2298794 2.221424 -1.6416912 3.4303627 -0.91980743z" fill-rule="evenodd"/></g></svg>