<svg version="1.1" viewBox="0.0 0.0 50.0 50.0" fill="none" stroke="none" stroke-linecap="square" stroke-miterlimit="10" xmlns:xlink="http://www.w3.org/1999/xlink" xmlns="http://www.w3.org/2000/svg"><clipPath id="p.0"><path d="m0 0l50.0 0l0 50.0l-50.0 0l0 -50.0z" clip-rule="nonzero"/></clipPath><g clip-path="url(#p.0)"><path fill="#000000" fill-opacity="0.0" d="m0 0l50.0 0l0 50.0l-50.0 0z" fill-rule="evenodd"/><path fill="#ffffff" d="m6.900755 12.648649l0 0c0 -1.3038816 1.0570049 -2.3608866 2.3608866 -2.3608866l31.478275 0c0.6261482 0 1.2266464 0.24873543 1.6693993 0.6914873c0.44275284 0.44275188 0.69148636 1.043253 0.69148636 1.6693993l0 0l0 0c0 1.3038816 -1.057003 2.3608866 -2.3608856 2.3608866l-31.478275 0l0 0c-1.3038816 0 -2.3608866 -1.0570049 -2.3608866 -2.3608866z" fill-rule="evenodd"/><path fill="#ffffff" d="m6.900755 25.000532l0 0c0 -1.3038826 1.0570049 -2.3608875 2.3608866 -2.3608875l31.478275 0c0.6261482 0 1.2266464 0.24873543 1.6693993 0.69148827c0.44275284 0.44275093 0.69148636 1.043253 0.69148636 1.6693993l0 0l0 0c0 1.3038807 -1.057003 2.3608856 -2.3608856 2.3608856l-31.478275 0l0 0c-1.3038816 0 -2.3608866 -1.0570049 -2.3608866 -2.3608856z" fill-rule="evenodd"/><path fill="#ffffff" d="m6.900755 37.352413l0 0c0 -1.3038788 1.0570049 -2.3608856 2.3608866 -2.3608856l31.478275 0c0.6261482 0 1.2266464 0.24873734 1.6693993 0.69148636c0.44275284 0.44275284 0.69148636 1.0432549 0.69148636 1.6693993l0 0l0 0c0 1.3038826 -1.057003 2.3608894 -2.3608856 2.3608894l-31.478275 0l0 0c-1.3038816 0 -2.3608866 -1.0570068 -2.3608866 -2.3608894z" fill-rule="evenodd"/></g></svg>